{"title":"Tenderness-AC3-5,1-DVDRip[Eng]2008","uid":5089125,"size":1368634279,"categoryP":"video","categoryS":"movies","magnet":"?xt=urn:btih:49309ffd57921a05f3530376fff0dd3a5d83f042&amp;dn=Tenderness-AC3-5%2C1-DVDRip%5BEng%5D2008&amp;tr=udp%3A%2F%2Ftracker.openbittorrent.com%3A80&amp;tr=udp%3A%2F%2Fopen.demonii.com%3A1337&amp;tr=udp%3A%2F%2Ftracker.coppersurfer.tk%3A6969&amp;tr=udp%3A%2F%2Fexodus.desync.com%3A6969","seeders":0,"leechers":0,"uploader":"FatFreddy31","files":-1,"time":1252972983,"description":" &lt;a href=&quot;http://www.imdb.com/title/tt0494864/&quot; rel=&quot;nofollow&quot; target=&quot;_NEW&quot;&gt;http://www.imdb.com/title/tt0494864/&lt;/a&gt;\n\nUser Rating:6.9/10 - 386 votes\n\nCrime,Drama,Thriller\n\nDirector:John Polson\n\nCast:Russell Crowe/Jon Foster/Sophie Traub/Arija Bareikis, and others.\n\nPlot:\nA nail-biting psychological thriller, that never lets you go. Set in New York State, the story center's on juvenile murderer, Eric Poole, who at 18, is released from jail having served his sentence for the murder of a young girl. Russell Crowe plays the hard-bitten detective who put him away and who is sure that Poole is a potential serial killer who will reoffend. He makes it his mission to keep Poole under surveillance as he sets off on a seemingly innocent road trip up-state. But all is not as it seems as Poole soon finds himself on the run with a young girl who has become obsessed with him and may or may not have been witness to the first murder...\n\nInfo:\n\nGeneral\nComplete name                    : Tenderness-AC3-5,1-DVDRip[Eng]2008.avi\nFormat                           : AVI\nFormat/Info                      : Audio Video Interleave\nFile size                        : 1.27 GiB\nDuration                         : 1h 36mn\nOverall bit rate                 : 1 885 Kbps\nWriting application              : VirtualDubMod 1.5.4.1 (build 2178/release)\nWriting library                  : VirtualDubMod build 2178/release\n\nVideo\nFormat                           : MPEG-4 Visual\nFormat profile                   : Simple@L3\nFormat settings, BVOP            : No\nFormat settings, QPel            : No\nFormat settings, GMC             : No warppoints\nFormat settings, Matrix          : Default\nCodec ID                         : XVID\nCodec ID/Hint                    : XviD\nDuration                         : 1h 36mn\nBit rate                         : 1 492 Kbps\nWidth                            : 640 pixels\nHeight                           : 272 pixels\nDisplay aspect ratio             : 2.35\nFrame rate                       : 25.000 fps\nResolution                       : 24 bits\nColorimetry                      : 4:2:0\nScan type                        : Progressive\nBits/(Pixel*Frame)               : 0.343\nStream size                      : 1.01 GiB (79%)\nWriting library                  : XviD 1.1.2 (UTC 2006-11-01)\n\nAudio\nFormat                           : AC-3\nFormat/Info                      : Audio Coding 3\nCodec ID                         : 2000\nDuration                         : 1h 36mn\nBit rate mode                    : Constant\nBit rate                         : 384 Kbps\nChannel(s)                       : 6 channels\nChannel positions                : Front: L C R, Surround: L R, LFE\nSampling rate                    : 48.0 KHz\nStream size                      : 266 MiB (20%)\nAlignment                        : Split accross interleaves\nInterleave, duration             : 40 ms (1.00 video frame)\nInterleave, preload duration     : 500 ms\n\nEnjoy..","torrent":{"xt":"urn:btih:49309ffd57921a05f3530376fff0dd3a5d83f042","amp;dn":"Tenderness-AC3-5%2C1-DVDRip%5BEng%5D2008","amp;tr":["udp%3A%2F%2Ftracker.openbittorrent.com%3A80","udp%3A%2F%2Fopen.demonii.com%3A1337","udp%3A%2F%2Ftracker.coppersurfer.tk%3A6969","udp%3A%2F%2Fexodus.desync.com%3A6969"],"infoHash":"49309ffd57921a05f3530376fff0dd3a5d83f042","infoHashBuffer":{"type":"Buffer","data":[73,48,159,253,87,146,26,5,243,83,3,118,255,240,221,58,93,131,240,66]},"announce":[],"urlList":[]}}